In this movie based on the early days of Def Jam Recordings, up-and-coming manager Russell Walker has all the hottest acts on the record label Krush Groove records, including Run-D.M.C., Dr. Jekyll & Mr. Hyde, and Kurtis Blow, while Rick (Rubin) produces their records. When Run-D.M.C. has a hit record and Russell doesn\'t have the money to press records, he borrows money from a street hustler. At the same time, Russell and and his brother Run are both competing for the heart of R&B singer Sheila E.


Cast:

Sheila E. ... Herself
Joseph Simmons ... Himself (Run-D.M.C)
Darryl McDaniels ... Himself (Run-D.M.C.) (as Daryll McDaniels)
Jason Mizell ... Himself (Run-D.M.C.)
Mark Morales ... Himself (Fat Boys)
Damon Wimbley ... Himself (Fat Boys)
Darren Robinson ... Himself (Fat Boys) (as Darren \'Buffy\' Robinson)
Kurtis Blow ... Himself
Blair Underwood ... Russell Walker
Ricky Bell ... Himself (New Edition)
Michael Lamone Bivins ... Himself (New Edition) (as Michael Bivins)
Bobby Brown ... Himself (New Edition) (as New Edition)
Ronald De Voe ... Himself (New Edition) (as New Edition)
Ralph E. Tresvant ... Himself (New Edition) (as Ralph Tresvant)
Lisa Gay Hamilton ... Aisha
Daniel Simmons ... Reverend Walker
Russell Simmons ... Crocket
Charles Stettler ... Terri Beiker
Rick Rubin ... Rick
Sal Abbatiello ... Sal
Adam Horovitz ... Himself (Beastie Boys)
Adam Yauch ... Himself (Beastie Boys) (as Adam Youck)
Mike D ... Himself (Beastie Boys)
Donnie Simpson ... Contest MC
Karen Moss ... Karen
Andre Harrell ... Himself (as Dr. Jeckyll)
Mr. Hyde ... Himself
Galaxy ... Himself
Chad Elliot ... Chad
Michael Lewis ... Mandingo
B-Fine ... Enforcer #1
Paul Anthony ... Enforcer #2
Sweet G. ... Fever D.J
Mr. Magic ... Himself
LL Cool J ... Himself
Nayobe ... Herself
Michael Kaufman ... Loan Officer
Elaine Shapiro ... Mrs. Ekhardt
John MacKay ... Dean
Karl Schröder ... Car Wash Boss
Heidi Smith ... Carmen
Leon Stephenson ... Scar
Benny Rietveld ... Sheila\'s Friend / Sheila Es Band
Haoui Montaug ... Danceteria D.J
Julian Jackson ... Man in Bar
Sunshine Wright ... Kurtis Blow\'s Girl
Sandra J. Wright ... Kurtis Blow\'s Girl
Jeffrey Fludd ... Hollis Crew
Douglas Hayes ... Hollis Crew
Danny Hayton ... Hollis Crew
Ernest Mobily ... Hollis Crew
Raymond White ... Hollis Crew
Terry Williams ... Hollis Crew
 
http://leetleech.org/images/20635521220351631085.jpg
  http://www.imdb.com/title/tt0089444/
Release Date
October 25, 1985 (USA)
 
http://postimg.com/image/20000/19841.jpg 
http://postimg.com/image/20000/19842.jpg 
http://postimg.com/image/20000/19844.jpg 
http://postimg.com/image/20000/19845.jpg 
http://postimg.com/image/20000/19846.jpg 
http://postimg.com/image/20000/19847.jpg


General
Complete name : Krush Groove 1985 DVDRip Xvid BigPerm LKRG\\KG_LKRG.avi
Format : AVI
Format/Info : Audio Video Interleave
File size : 941 MiB
Duration : 1h 34mn
Overall bit rate : 1 396 Kbps

Video
ID : 0
Format : MPEG-4 Visual
Format profile : Advanced Simple@L5
Format settings, BVOP : Yes
Format settings, QPel : No
Format settings, GMC : No warppoints
Format settings, Matrix : Default (H.263)
Codec ID : XVID
Codec ID/Hint : XviD
Duration : 1h 34mn
Bit rate : 1 199 Kbps
Width : 720 pixels
Height : 404 pixels
Display aspect ratio : 16:9
Frame rate : 23.976 fps
Resolution : 8 bits
Colorimetry : 4:2:0
Scan type : Progressive
Bits/(Pixel*Frame) : 0.172
Stream size : 808 MiB (86%)
Writing library : XviD 1.2.1 (UTC 2008-12-04)

Audio
ID : 1
Format : AC-3
Format/Info : Audio Coding 3
Codec ID : 2000
Duration : 1h 34mn
Bit rate mode : Constant
Bit rate : 192 Kbps
Channel(s) : 2 channels
Channel positions : Front: L R
Sampling rate : 48.0 KHz
Resolution : 16 bits
Video delay : 42ms
Stream size : 129 MiB (14%)
Alignment : Split accross interleaves
Language : English

 
http://postimg.com/image/20000/19848.jpg